<svg width="16" height="16" viewBox="0 0 16 16" fill="none" xmlns="http://www.w3.org/2000/svg">
<path fill-rule="evenodd" clip-rule="evenodd" d="M13.2 15H2.8C1.807 15 1 14.193 1 13.2V2.5C1 1.672 1.672 1 2.5 1H7.5C8.328 1 9 1.672 9 2.5V3H13.2C14.194 3 15 3.807 15 4.8V13.2C15 14.193 14.193 15 13.2 15ZM10.75 12C11.164 12 11.5 11.664 11.5 11.25C11.5 11.079 11.443 10.921 11.346 10.795C11.346 10.795 10.389 9.129 9.743 8.004C9.623 7.794 9.4 7.663 9.158 7.66C8.916 7.657 8.69 7.782 8.564 7.989C8.255 8.495 7.902 9.074 7.696 9.412C7.653 9.482 7.581 9.529 7.499 9.54C7.418 9.551 7.336 9.524 7.276 9.467C7.116 9.315 6.9 9.11 6.7 8.919C6.565 8.791 6.38 8.731 6.195 8.754C6.011 8.778 5.847 8.883 5.748 9.041L4.654 10.795C4.557 10.921 4.5 11.079 4.5 11.25C4.5 11.664 4.836 12 5.25 12H10.75ZM6 6C6.552 6 7 6.448 7 7C7 7.552 6.552 8 6 8C5.448 8 5 7.552 5 7C5 6.448 5.448 6 6 6Z" fill="#333333"/>
</svg>
