<svg width="16" height="16" viewBox="0 0 16 16" fill="none" xmlns="http://www.w3.org/2000/svg">
<path fill-rule="evenodd" clip-rule="evenodd" d="M13.2 2C14.193 2 15 2.807 15 3.8V12.2C15 13.193 14.193 14 13.2 14H2.8C1.807 14 1 13.193 1 12.2V3.8C1 2.807 1.807 2 2.8 2H13.2ZM5.049 8.094L3.036 6.081C2.74 5.786 2.74 5.306 3.036 5.011C3.331 4.715 3.811 4.715 4.106 5.011L7.992 8.897L11.883 5.006C12.179 4.71 12.658 4.71 12.954 5.006C13.249 5.301 13.249 5.781 12.954 6.076L10.944 8.085L12.814 9.955C13.096 10.237 13.096 10.695 12.814 10.977C12.532 11.259 12.074 11.259 11.792 10.977L9.922 9.107L8.612 10.417C8.589 10.449 8.563 10.48 8.534 10.509C8.385 10.658 8.188 10.732 7.992 10.73C7.796 10.732 7.6 10.658 7.45 10.509C7.421 10.48 7.395 10.449 7.372 10.417L6.071 9.117L4.212 10.976C3.93 11.258 3.472 11.258 3.19 10.976C2.908 10.694 2.908 10.236 3.19 9.953L5.049 8.094Z" fill="#333333"/>
</svg>
