<svg width="185" height="29" viewBox="0 0 185 29" fill="none" xmlns="http://www.w3.org/2000/svg">
<path d="M147.421 19.3827C147.323 19.1132 147.131 18.98 146.838 18.98C146.539 18.98 146.335 19.134 146.225 19.4449C146.116 19.7528 146.054 20.2058 146.039 20.7951H147.58C147.572 20.1229 147.518 19.6521 147.421 19.3827Z" fill="black"/>
<path d="M90.7573 0.0236816C89.4998 0.0236816 88.6773 0.180614 88.2867 0.49448C87.8961 0.808346 87.7009 1.32652 87.7009 2.04604V14.0351C90.7809 13.9877 92.9852 13.5554 94.3108 12.7352C95.6363 11.915 96.299 10.017 96.299 7.04124C96.299 5.21727 96.0476 3.77526 95.5416 2.71523C94.6658 0.920864 93.074 0.0236816 90.7573 0.0236816Z" fill="black"/>
<path d="M87.7216 15.5541H87.7009V24.7806C87.7009 26.4358 87.976 27.5521 88.5293 28.1295C88.9583 28.5766 89.7247 28.8667 90.8194 29.003H97.7518L87.7216 15.5541Z" fill="black"/>
<path d="M0.819579 2.60567C0.547372 1.82397 0.272207 1.22881 0 0.80835V29H10.0539L0.819579 2.60567Z" fill="black"/>
<path d="M26.2029 1.27027C26.2029 1.42424 26.2532 1.72034 26.3508 2.15857C26.4514 2.59679 26.623 3.20084 26.8686 3.96773L32.1707 18.8645L37.2125 3.64499C37.3042 3.36961 37.3811 3.07351 37.4432 2.75669C37.5054 2.44282 37.535 2.09342 37.535 1.70849C37.535 0.873493 37.2302 0.304982 36.6296 0.00296021H26.9514C26.9278 0.0118432 26.9012 0.0177652 26.8804 0.0266482C26.4277 0.21023 26.2029 0.624769 26.2029 1.27027Z" fill="black"/>
<path d="M118.265 0C116.416 0.124362 114.963 0.470798 113.91 1.03931C111.655 2.27108 110.383 4.56882 110.093 7.93843H108.738L108.776 0H100.086C102.942 1.40351 104.371 3.60945 104.371 6.62671C104.371 9.18797 103.382 11.2044 101.409 12.679C99.8999 13.7834 98.3022 14.4882 96.6157 14.7961L106.622 28.2094C106.883 28.5766 107.158 28.8194 107.451 28.9349C107.513 28.9585 107.581 28.9822 107.652 29.003H116.111C117.138 28.8816 117.868 28.624 118.292 28.2213C118.898 27.6468 119.2 26.498 119.2 24.7806V0H118.265Z" fill="black"/>
<path d="M80.0672 24.7806V3.93516C80.0672 2.12007 79.721 0.938636 79.0317 0.387891C78.8452 0.239841 78.5582 0.109557 78.1825 0H71.6495V7.93843H70.4986C69.9009 4.90045 68.886 2.82183 67.451 1.70257C66.019 0.583316 63.4094 0.023688 59.6221 0.023688C58.1812 0.023688 57.2669 0.174699 56.8734 0.473759C56.4829 0.77282 56.2876 1.36798 56.2876 2.25628V13.1616C58.9682 13.1912 60.7849 12.7056 61.7376 11.7019C62.6874 10.6981 63.4153 8.8593 63.9212 6.19144H65.1166V22.1127H63.9212C63.5839 19.4301 62.8975 17.538 61.8649 16.4424C60.8293 15.3468 58.9712 14.7961 56.2906 14.7961V26.2078C56.2906 27.2056 56.548 27.8837 57.0598 28.2449C57.5747 28.6062 58.628 28.7868 60.2198 28.7868C63.223 28.7868 65.6758 28.2035 67.5783 27.0369C69.4778 25.8702 71.1643 23.685 72.6348 20.4783H73.9455L72.2857 29.003H76.8658C77.9517 28.8668 78.7269 28.5973 79.1855 28.1857C79.7773 27.6646 80.0672 26.5276 80.0672 24.7806Z" fill="black"/>
<path d="M48.7073 25.7696V2.94619C48.7073 1.57525 48.2546 0.65438 47.3522 0.180621C47.2338 0.115479 47.0888 0.0532979 46.9261 0H41.4672C41.3784 0.0444149 41.2896 0.0888299 41.2127 0.139167C40.5233 0.615887 39.9878 1.43608 39.6031 2.60568L30.86 29H45.6361C46.4113 28.9082 47.0001 28.7542 47.3965 28.5292C48.2723 28.0406 48.7073 27.1198 48.7073 25.7696Z" fill="black"/>
<path d="M8.70467 3.08832L14.4772 19.587H14.5749L19.9569 5.78283C19.9865 5.70584 19.7675 5.00408 19.3 3.67756C18.8296 2.35103 18.5041 1.5338 18.3177 1.22585C17.9656 0.672146 17.578 0.281295 17.1579 0.0503369C17.1253 0.02961 17.0869 0.014805 17.0543 0H9.2195C9.16328 0.023688 9.11002 0.0473759 9.06268 0.0710639C8.63958 0.287217 8.4295 0.778742 8.4295 1.54564C8.4295 1.74699 8.45317 1.98091 8.49756 2.2474C8.5449 2.51685 8.61295 2.79814 8.70467 3.08832Z" fill="black"/>
<path d="M28.2001 29L21.028 8.9422H20.7055L12.8884 29H28.2001Z" fill="black"/>
<path d="M173.884 19.3827C173.786 19.1132 173.594 18.98 173.301 18.98C173.002 18.98 172.798 19.134 172.689 19.4449C172.579 19.7528 172.517 20.2058 172.502 20.7951H174.044C174.032 20.1229 173.982 19.6521 173.884 19.3827Z" fill="black"/>
<path d="M137.139 0L137.177 7.93843H135.822C135.378 4.53921 134.106 2.23851 132.005 1.03931C130.991 0.470798 129.541 0.124362 127.665 0H126.715V24.7776C126.715 26.5128 127.017 27.6646 127.624 28.2301C128.047 28.6269 128.792 28.8816 129.852 29H185V0H137.139ZM143.974 17.5143L141.367 24.2387H141.065L138.124 17.387C138.006 17.1116 137.885 16.9132 137.757 16.7918C137.633 16.6704 137.438 16.5993 137.174 16.5757V16.2973H141.009V16.5757C140.601 16.5993 140.334 16.6319 140.213 16.6793C140.092 16.7267 140.033 16.8421 140.033 17.0287C140.033 17.0879 140.039 17.1442 140.047 17.1945C140.056 17.2448 140.074 17.3011 140.101 17.3603L141.903 21.5709L143.391 17.7186C143.423 17.6327 143.453 17.5439 143.48 17.4551C143.524 17.31 143.548 17.1915 143.548 17.1027C143.548 16.8866 143.483 16.7504 143.355 16.6971C143.228 16.6438 142.965 16.6023 142.571 16.5757V16.2973H145.003V16.5757C144.725 16.6053 144.515 16.6852 144.376 16.8185C144.237 16.9487 144.104 17.1827 143.974 17.5143ZM147.805 23.9693C147.504 24.1144 147.157 24.1884 146.767 24.1884C146.205 24.1884 145.678 23.9663 145.187 23.5251C144.696 23.081 144.45 22.3733 144.45 21.4021C144.45 20.5227 144.684 19.8416 145.151 19.356C145.619 18.8704 146.181 18.6276 146.841 18.6276C147.217 18.6276 147.572 18.7253 147.903 18.9237C148.234 19.1221 148.489 19.3945 148.669 19.7439C148.802 20.0075 148.897 20.3509 148.947 20.7714C148.974 20.9698 148.986 21.1208 148.986 21.2244H146.069C146.095 21.6834 146.169 22.0801 146.293 22.4147C146.518 23.0425 146.912 23.3593 147.474 23.3593C147.743 23.3593 147.995 23.2764 148.234 23.1076C148.379 23.0069 148.56 22.8382 148.776 22.5983L149.039 22.7612C148.681 23.3386 148.27 23.7413 147.805 23.9693ZM155.362 24.0255H152.678V23.7531C152.883 23.7117 153.022 23.6554 153.096 23.5843C153.17 23.5133 153.208 23.3534 153.208 23.1047V20.3361C153.208 20.0756 153.181 19.8801 153.131 19.7498C153.042 19.5159 152.865 19.3975 152.601 19.3975C152.403 19.3975 152.223 19.4685 152.057 19.6136C151.891 19.7558 151.764 19.9009 151.675 20.0459V23.1076C151.675 23.3563 151.714 23.5162 151.788 23.5873C151.862 23.6584 152.001 23.7146 152.205 23.7561V24.0285H149.453V23.7561C149.66 23.7294 149.814 23.6732 149.915 23.5843C150.013 23.4955 150.063 23.3238 150.063 23.0632V19.6965C150.063 19.4626 150.021 19.3027 149.942 19.2109C149.862 19.1221 149.699 19.0599 149.453 19.0303V18.7579H151.619V19.5781C151.803 19.3027 152.033 19.0747 152.314 18.8941C152.596 18.7135 152.906 18.6247 153.249 18.6247C153.741 18.6247 154.122 18.752 154.392 19.0037C154.661 19.2583 154.797 19.7025 154.797 20.3391V23.1047C154.797 23.3623 154.841 23.5281 154.927 23.6021C155.016 23.6761 155.161 23.7265 155.365 23.7531V24.0255H155.362ZM158.883 23.6554C158.555 24.0018 158.155 24.1736 157.685 24.1736C157.418 24.1736 157.182 24.1232 156.983 24.0226C156.596 23.8301 156.403 23.4777 156.401 22.9684V19.2613H155.809V18.9415C155.909 18.8497 156.034 18.7372 156.182 18.6128C156.38 18.4292 156.563 18.2427 156.741 18.0502C157.087 17.6712 157.401 17.2626 157.685 16.8273H157.975V18.7609H159.063V19.2642H157.975V22.7049C157.975 22.8648 157.998 22.9981 158.049 23.1076C158.123 23.2764 158.247 23.3593 158.415 23.3593C158.563 23.3593 158.688 23.306 158.788 23.1994C158.889 23.0928 158.989 22.9477 159.09 22.7612L159.362 22.8944C159.229 23.2024 159.069 23.457 158.883 23.6554ZM165.564 23.8005C164.857 23.8686 164.413 23.916 164.226 23.9485C164.043 23.9811 163.747 24.0581 163.342 24.1854V23.4304C163.07 23.6643 162.845 23.8301 162.667 23.9278C162.354 24.0995 162.028 24.1854 161.691 24.1854C161.324 24.1854 160.981 24.067 160.661 23.8331C160.342 23.5991 160.185 23.1816 160.185 22.5835V19.6965C160.185 19.4508 160.146 19.2939 160.066 19.2169C159.99 19.1428 159.839 19.0807 159.614 19.0303V18.7579H161.768V22.6398C161.768 22.8707 161.794 23.0395 161.851 23.1491C161.948 23.3386 162.138 23.4333 162.425 23.4333C162.608 23.4333 162.786 23.3771 162.96 23.2616C163.061 23.1994 163.188 23.0928 163.339 22.9418V19.6965C163.339 19.4567 163.292 19.2879 163.197 19.1932C163.102 19.0984 162.91 19.0451 162.626 19.0333V18.7609H164.901V22.8826C164.901 23.1195 164.945 23.2823 165.034 23.3741C165.123 23.4659 165.298 23.5222 165.558 23.5429V23.8005H165.564ZM170.425 20.0637C170.292 20.2088 170.12 20.2828 169.907 20.2828C169.665 20.2828 169.455 20.1703 169.277 19.9423C169.1 19.7143 168.975 19.6018 168.904 19.6018C168.75 19.6018 168.597 19.6965 168.443 19.8831C168.289 20.0726 168.212 20.3391 168.212 20.6914V22.8559C168.212 23.232 168.268 23.4689 168.378 23.5636C168.487 23.6584 168.706 23.7205 169.034 23.7502V24.0226H165.993V23.7502C166.212 23.7235 166.366 23.6732 166.451 23.5932C166.537 23.5162 166.585 23.3652 166.591 23.1402L166.602 22.8056V19.6965C166.602 19.4567 166.561 19.2939 166.478 19.208C166.395 19.1221 166.235 19.0629 165.993 19.0333V18.7609H168.159V19.661C168.401 19.3442 168.641 19.0925 168.881 18.906C169.12 18.7194 169.395 18.6276 169.709 18.6276C169.943 18.6276 170.156 18.7017 170.345 18.8527C170.535 19.0037 170.626 19.2228 170.626 19.5159C170.626 19.735 170.558 19.9186 170.425 20.0637ZM174.269 23.9693C173.967 24.1144 173.621 24.1884 173.23 24.1884C172.668 24.1884 172.141 23.9663 171.65 23.5251C171.159 23.081 170.913 22.3733 170.913 21.4021C170.913 20.5227 171.147 19.8416 171.615 19.356C172.082 18.8704 172.644 18.6276 173.304 18.6276C173.68 18.6276 174.035 18.7253 174.366 18.9237C174.698 19.1221 174.952 19.3945 175.132 19.7439C175.266 20.0075 175.36 20.3509 175.411 20.7714C175.437 20.9698 175.449 21.1208 175.449 21.2244H172.532C172.558 21.6834 172.632 22.0801 172.757 22.4147C172.981 23.0425 173.375 23.3593 173.937 23.3593C174.206 23.3593 174.458 23.2764 174.698 23.1076C174.843 23.0069 175.023 22.8382 175.239 22.5983L175.502 22.7612C175.141 23.3386 174.733 23.7413 174.269 23.9693ZM179.423 23.6376C179.115 24.0048 178.656 24.1884 178.041 24.1884C177.887 24.1884 177.736 24.1736 177.579 24.141C177.426 24.1084 177.233 24.0551 177.008 23.9752L176.813 23.9071C176.742 23.8804 176.698 23.8656 176.683 23.8627C176.665 23.8597 176.644 23.8567 176.618 23.8567C176.556 23.8567 176.499 23.8804 176.452 23.9308C176.405 23.9811 176.352 24.067 176.292 24.1854H176.02V22.2933H176.337C176.449 22.8411 176.656 23.2261 176.961 23.4511C177.266 23.6761 177.579 23.7886 177.899 23.7886C178.192 23.7886 178.408 23.7235 178.547 23.5903C178.683 23.457 178.754 23.2853 178.754 23.0691C178.754 22.8648 178.68 22.6901 178.532 22.545C178.449 22.468 178.319 22.3822 178.136 22.2933L177.286 21.8788C176.84 21.6597 176.52 21.4198 176.328 21.1652C176.13 20.9076 176.032 20.6056 176.032 20.2562C176.032 19.812 176.186 19.4301 176.497 19.1073C176.804 18.7846 177.236 18.6247 177.792 18.6247C178.035 18.6247 178.29 18.6661 178.562 18.7461C178.834 18.826 179.003 18.8675 179.071 18.8675C179.162 18.8675 179.23 18.8467 179.269 18.8082C179.307 18.7698 179.34 18.7135 179.366 18.6424H179.618V20.2947H179.328C179.222 19.9068 179.044 19.5959 178.798 19.362C178.553 19.128 178.266 19.0096 177.94 19.0096C177.686 19.0096 177.5 19.0807 177.375 19.2228C177.251 19.3649 177.189 19.5159 177.189 19.6817C177.189 19.815 177.245 19.9512 177.357 20.0844C177.464 20.2236 177.671 20.3628 177.97 20.5079L178.594 20.8099C178.982 20.9964 179.263 21.177 179.443 21.3517C179.742 21.6508 179.89 22.015 179.89 22.4532C179.881 22.8737 179.73 23.2705 179.423 23.6376Z" fill="black"/>
</svg>
