<svg width="134" height="40" viewBox="0 0 134 40" fill="none" xmlns="http://www.w3.org/2000/svg">
<path d="M120.564 23.9859C120.564 22.7831 120.564 21.6608 120.564 20.4529C124.653 20.4529 128.707 20.4529 132.787 20.4529C132.787 18.5204 132.787 16.6784 132.787 14.7458C128.667 14.7458 124.618 14.7458 120.569 14.7458C120.569 13.6537 120.569 12.6573 120.569 11.5702C125.002 11.5702 129.396 11.5702 133.81 11.5702C133.81 9.69298 133.81 7.8963 133.81 6.07446C127.144 6.07446 120.529 6.07446 113.838 6.07446C113.838 13.9104 113.838 21.6809 113.838 29.4464C120.598 29.4464 127.304 29.4464 134 29.4464C134 27.6094 134 25.8379 134 23.9859C129.496 23.9859 125.052 23.9859 120.564 23.9859Z" fill="black"/>
<path d="M98.0446 22.2093C97.9348 21.9577 97.8549 21.8067 97.8 21.6457C96.1473 16.6482 94.4995 11.6457 92.8269 6.6482C92.747 6.41166 92.4673 6.06944 92.2776 6.06944C89.9109 6.02918 87.5441 6.04428 85.1175 6.04428C85.1774 6.28081 85.2024 6.45193 85.2623 6.61297C87.9885 14.0513 90.7247 21.4897 93.431 28.9381C93.5958 29.386 93.8055 29.5219 94.2549 29.5168C96.5467 29.4967 98.8435 29.4716 101.13 29.5269C101.854 29.547 102.139 29.2954 102.379 28.6412C104.631 22.4258 106.912 16.2305 109.189 10.0252C109.669 8.72168 110.133 7.41821 110.617 6.06944C108.156 6.06944 105.789 6.06944 103.377 6.06944C101.61 11.4242 99.8422 16.764 98.0446 22.2093Z" fill="black"/>
<path d="M50.705 11.6155C53.2565 11.6155 55.768 11.6155 58.3594 11.6155C58.3594 17.6145 58.3594 23.5229 58.3594 29.4414C60.6363 29.4414 62.8332 29.4414 65.0801 29.4414C65.0801 23.4827 65.0801 17.5894 65.0801 11.5853C67.6616 11.5853 70.1931 11.5853 72.6996 11.5853C72.6996 9.67291 72.6996 7.87623 72.6996 6.06445C65.3498 6.06445 58.0648 6.06445 50.705 6.06445C50.705 7.93159 50.705 9.72827 50.705 11.6155Z" fill="black"/>
<path d="M75.1912 29.4413C77.4431 29.4413 79.6401 29.4413 81.832 29.4413C81.832 21.6255 81.832 13.8751 81.832 6.08447C79.6151 6.08447 77.4331 6.08447 75.1912 6.08447C75.1912 13.9154 75.1912 21.6809 75.1912 29.4413Z" fill="black"/>
<path d="M17.1963 6.61301C17.0265 6.17516 16.8268 6.02921 16.3674 6.03425C14.2553 6.05941 12.1432 6.06947 10.0312 6.02921C9.42199 6.01915 9.14238 6.19529 8.91269 6.77909C6.516 12.9593 4.07937 19.1243 1.65771 25.2995C1.11846 26.6633 0.584193 28.0272 0 29.5068C2.3867 29.5068 4.59865 29.5169 6.8106 29.4867C7.00533 29.4816 7.28994 29.2199 7.36483 29.0136C7.55457 28.5254 7.73432 28.0272 7.90908 27.534L7.95402 27.4031C8.11879 26.92 8.27857 26.4318 8.42836 25.9437C8.45832 25.838 8.49827 25.7474 8.53821 25.6769L11.0897 18.153C11.6839 16.4016 12.2681 14.6653 12.8523 12.9341C12.9072 12.919 12.9621 12.9089 13.012 12.8938C13.6611 14.8063 14.3152 16.7237 14.9843 18.6814L17.406 25.7826C17.4359 25.843 17.4609 25.9084 17.4809 25.9889C17.5108 26.0896 17.5458 26.1903 17.5757 26.2909L18.1899 28.0926C18.2848 28.3694 18.3796 28.6462 18.4645 28.923C18.6043 29.3659 18.824 29.5219 19.2884 29.5118C20.7314 29.4816 22.1744 29.5018 23.6174 29.5018C24.4263 29.5018 25.2352 29.5018 26.1239 29.5018C26.044 29.2602 26.0141 29.1394 25.9691 29.0287C23.0432 21.5602 20.1122 14.0916 17.1963 6.61301Z" fill="black"/>
<path d="M37.8228 11.1021C40.4641 11.1021 42.741 12.6723 43.7945 14.932H49.6964C48.4331 9.50172 43.5948 5.46045 37.8228 5.46045C31.0821 5.46045 25.6196 10.9662 25.6196 17.7604C25.6196 24.5546 31.0821 30.0603 37.8228 30.0603C43.5998 30.0603 48.4331 26.014 49.6964 20.5838H43.7945C42.741 22.8434 40.4641 24.4136 37.8228 24.4136C34.1778 24.4136 31.2219 21.4343 31.2219 17.7604C31.2219 14.0815 34.1778 11.1021 37.8228 11.1021Z" fill="black"/>
<path d="M38.5118 1.50482L29.8438 21.2783L36.5845 20.3574L28.0213 36.9099L47.3896 15.8682L38.8464 16.7288L49.9161 0.588867L38.5118 1.50482Z" fill="#FFC200"/>
<path d="M49.9161 0.588867L47.9538 0.744881L36.1052 18.1077L44.6484 17.2471L29.9037 33.2713L28.0213 36.9099L47.3896 15.8682L38.8464 16.7288L49.9161 0.588867Z" fill="#FF9800"/>
<path d="M30.5578 34.1569L38.407 18.9783L31.6663 19.8993L39.7751 1.40405L38.5118 1.50471L29.8438 21.2782L36.5845 20.3572L28.0213 36.9098L30.5578 34.1569Z" fill="white"/>
<path d="M25.8593 40L35.6957 20.9864L29.0299 21.8973L38.1773 1.02667L50.9247 0L39.87 16.1198L48.6528 15.234L25.8593 40ZM37.4733 19.7282L30.1783 33.8249L46.1213 16.5023L37.8178 17.3377L48.9075 1.17262L38.8464 1.98289L30.6577 20.6593L37.4733 19.7282Z" fill="black"/>
<path d="M49.6964 14.9371C49.3019 13.2562 48.5679 11.7061 47.5693 10.3674C45.9416 11.3538 44.2689 12.2547 42.6311 13.2159C43.1005 13.7243 43.4999 14.303 43.7945 14.9371H49.6964Z" fill="black"/>
<path d="M43.7945 20.5787C42.741 22.8384 40.4641 24.4086 37.8228 24.4086C34.1778 24.4086 31.2219 21.4293 31.2219 17.7554C31.2219 16.4167 31.6213 15.1736 32.3004 14.1268C32.3603 13.9406 32.4452 13.7645 32.56 13.6034C32.605 13.543 32.6449 13.4776 32.6849 13.4172C32.6949 13.3467 32.6999 13.2763 32.7148 13.2058C33.0993 11.6859 33.4239 10.2214 34.073 8.78207C34.2377 8.41971 34.4974 8.15801 34.8019 7.95671C35.1115 7.18167 35.4311 6.40663 35.7407 5.63159C29.9936 6.62807 25.6196 11.6708 25.6196 17.7504C25.6196 24.5445 31.0821 30.0503 37.8228 30.0503C43.5998 30.0503 48.4331 26.004 49.6964 20.5737H43.7945V20.5787Z" fill="black"/>
</svg>
