<svg width="39" height="40" viewBox="0 0 39 40" fill="none" xmlns="http://www.w3.org/2000/svg">
<path d="M20.9039 20.5346C20.9039 23.9593 18.1516 26.7401 14.7421 26.7401C11.3326 26.7401 8.58038 23.9593 8.58038 20.5346C8.58038 17.1099 11.3326 14.3291 14.7421 14.3291C18.1516 14.3291 20.9039 17.1099 20.9039 20.5346ZM27.6544 20.5346C27.6544 23.7538 26.2715 26.3703 24.5736 26.3703C22.8757 26.3703 21.4927 23.7538 21.4927 20.5346C21.4927 17.3154 22.8757 14.699 24.5736 14.699C26.2715 14.699 27.6544 17.3017 27.6544 20.5346ZM30.4204 20.5346C30.4204 23.425 29.9411 25.7675 29.3387 25.7675C28.7362 25.7675 28.2569 23.425 28.2569 20.5346C28.2569 17.6442 28.7362 15.3017 29.3387 15.3017C29.9411 15.3017 30.4204 17.6442 30.4204 20.5346Z" fill="black"/>
</svg>
