<svg width="39" height="40" viewBox="0 0 39 40" fill="none" xmlns="http://www.w3.org/2000/svg">
<path d="M10.8499 19.2916C10.8499 19.2916 18.7844 15.864 21.5362 14.6571C22.5911 14.1744 26.1684 12.6295 26.1684 12.6295C26.1684 12.6295 27.8195 11.9537 27.6819 13.5951C27.636 14.2709 27.2691 16.6364 26.9022 19.195C26.3518 22.8157 25.7556 26.7743 25.7556 26.7743C25.7556 26.7743 25.6639 27.8847 24.8842 28.0778C24.1046 28.2708 22.8203 27.4019 22.5911 27.2088C22.4075 27.064 19.1513 24.8916 17.9588 23.8295C17.6377 23.5398 17.2709 22.9606 18.0046 22.2847C19.6558 20.6916 21.6279 18.7123 22.8203 17.4571C23.3707 16.8778 23.9211 15.5261 21.6279 17.1674C18.3716 19.533 15.1611 21.7537 15.1611 21.7537C15.1611 21.7537 14.4273 22.2364 13.0514 21.8019C11.6754 21.3675 10.0702 20.7881 10.0702 20.7881C10.0702 20.7881 8.96953 20.064 10.8499 19.2916Z" fill="black"/>
</svg>
