<svg width="40" height="40" viewBox="0 0 40 40" fill="none" xmlns="http://www.w3.org/2000/svg">
<path d="M29.9998 20.1831C30.0028 20.3869 29.9773 20.5904 29.9233 20.7873C29.8692 20.9841 29.7874 21.1727 29.68 21.3468C29.573 21.5209 29.4417 21.6794 29.29 21.8174C29.1384 21.9555 28.968 22.0715 28.7837 22.1623C28.7878 22.2166 28.7912 22.2713 28.7931 22.326C28.7976 22.4351 28.7976 22.5443 28.7931 22.6534C28.7912 22.7081 28.7878 22.7628 28.7837 22.8171C28.7837 26.1506 24.865 28.8591 20.0304 28.8591C15.1958 28.8591 11.2771 26.1506 11.2771 22.8171C11.273 22.7628 11.2696 22.7081 11.2677 22.6534C11.2632 22.5443 11.2632 22.4351 11.2677 22.326C11.2696 22.2713 11.273 22.2166 11.2771 22.1623C10.9883 22.0308 10.7319 21.8386 10.5255 21.5991C10.319 21.3596 10.1676 21.0786 10.0816 20.7754C9.9957 20.472 9.97741 20.1538 10.028 19.8427C10.0785 19.5317 10.1967 19.2352 10.3744 18.9739C10.5518 18.7127 10.7845 18.4929 11.0563 18.3297C11.3281 18.1665 11.6324 18.0639 11.9482 18.0289C12.264 17.9939 12.5838 18.0273 12.8853 18.1268C13.1868 18.2264 13.4629 18.3898 13.6944 18.6056C14.1241 18.3169 14.5743 18.0594 15.0415 17.8351C15.5088 17.6111 15.9919 17.4207 16.487 17.2659C16.9821 17.1111 17.4881 16.9924 18.0005 16.9102C18.5128 16.828 19.0308 16.783 19.5499 16.7752L20.661 11.6112C20.6734 11.5514 20.6978 11.4948 20.7327 11.4442C20.7672 11.394 20.8119 11.3508 20.8633 11.3177C20.9151 11.2846 20.9729 11.2619 21.0337 11.2507C21.0941 11.24 21.1564 11.2411 21.2165 11.2541L24.895 11.9833C25.2662 11.3512 26.0455 11.0803 26.7335 11.3438C27.4215 11.6072 27.8149 12.3271 27.661 13.0421C27.5075 13.7572 26.8521 14.2557 26.1156 14.2181C25.3788 14.1806 24.7786 13.618 24.6998 12.8911L21.4868 12.2214L20.5108 16.8645C21.0236 16.8753 21.5352 16.9229 22.0412 17.0066C23.0544 17.174 24.038 17.4855 24.9614 17.9315C25.4226 18.154 25.8671 18.4091 26.2913 18.6949C26.5963 18.4046 26.9796 18.2081 27.3949 18.129C27.8101 18.0497 28.2397 18.0912 28.6317 18.2485C29.0237 18.4057 29.3615 18.672 29.6042 19.0152C29.847 19.3585 29.9844 19.7641 29.9998 20.1831V20.1831ZM15.0997 22.2408C15.1755 22.4213 15.2859 22.5853 15.4255 22.7234C15.5648 22.8618 15.7303 22.9711 15.9123 23.0463C16.0946 23.121 16.2898 23.1594 16.487 23.1594C17.0943 23.1594 17.6416 22.7966 17.8743 22.2408C18.1067 21.6846 17.9779 21.0447 17.5485 20.6191C17.1191 20.1935 16.4735 20.0659 15.9123 20.2962C15.3516 20.5268 14.9856 21.0693 14.9856 21.6712C14.9856 21.8665 15.0243 22.06 15.0997 22.2408V22.2408ZM23.6991 25.8132C23.7761 25.7387 23.82 25.6372 23.8215 25.5308C23.823 25.424 23.7813 25.3213 23.7062 25.245C23.6312 25.1688 23.5287 25.1253 23.4213 25.1238C23.3136 25.1223 23.21 25.1636 23.1233 25.2279C22.8975 25.3884 22.6585 25.5297 22.4086 25.6502C22.1588 25.7708 21.8991 25.8702 21.6324 25.9475C21.3659 26.0245 21.093 26.0792 20.8171 26.1108C20.5409 26.1424 20.2627 26.1506 19.9853 26.1357C19.7083 26.148 19.4306 26.1368 19.1554 26.1026C18.8802 26.0687 18.6085 26.0115 18.3432 25.9315C18.0774 25.8518 17.8195 25.7499 17.5714 25.6271C17.3233 25.5044 17.0861 25.3608 16.8624 25.1982C16.7847 25.1349 16.686 25.1026 16.5854 25.1074C16.4848 25.1122 16.3898 25.1543 16.3185 25.2246C16.2475 25.2953 16.2051 25.3894 16.2002 25.4891C16.1954 25.5888 16.228 25.6867 16.2918 25.7637C16.5557 25.9609 16.8361 26.135 17.13 26.2845C17.4239 26.4341 17.7306 26.558 18.0459 26.6555C18.3612 26.7529 18.6844 26.8232 19.012 26.866C19.3397 26.9084 19.6704 26.923 20.0003 26.9096C20.3303 26.923 20.661 26.9084 20.9887 26.866C21.645 26.7805 22.2816 26.5838 22.8707 26.2845C23.1646 26.135 23.445 25.9609 23.7089 25.7637L23.6991 25.8132ZM23.4236 23.2784C23.627 23.2807 23.829 23.2416 24.017 23.1642C24.2051 23.0865 24.3751 22.9719 24.517 22.8272C24.6589 22.6824 24.7692 22.5106 24.8421 22.3219C24.9149 22.1335 24.9483 21.9324 24.94 21.7308C24.94 21.1288 24.5741 20.5864 24.0133 20.3557C23.4521 20.1254 22.8065 20.253 22.3771 20.6786C21.9477 21.1042 21.8189 21.7441 22.0513 22.3003C22.284 22.8562 22.8313 23.2189 23.4386 23.2189L23.4236 23.2784Z" fill="black"/>
</svg>
